Patient4_TMGait_0pt7_01_left_24_GRF.mot
version=1
nRows=78
nColumns=19
inDegrees=no
endheader
time	F1x	F1y	F1z	M1x	M1y	M1z	F2x	F2y	F2z	M2x	M2y	M2z	EC1x	EC1y	EC1z	EC2x	EC2y	EC2z
27.61	-0.47278	3.1647	-8.035	0.71158	4.2103	1.8318	-10.5706	671.9649	-87.3155	265.1952	94.0269	748.3511	-0.0592	0.0182	-0.0073	-0.0462	0.0165	0.9585
27.6218	-0.34458	3.0958	-5.2373	0.13106	2.6859	2.2677	-14.137	686.858	-80.2544	268.7292	89.9719	762.7782	-0.0592	0.0182	-0.0073	-0.0462	0.0165	0.9585
27.6336	-0.28102	3.0444	-2.913	-0.35511	1.4066	2.6711	-16.8196	702.498	-74.3109	272.9875	86.3859	777.0489	-0.0592	0.0182	-0.0073	-0.0462	0.0165	0.9585
27.6454	-0.28477	3.0279	-1.1729	-0.72929	0.43417	3.0319	-18.4731	718.125	-69.7804	277.7808	83.421	790.3732	-0.0592	0.0182	-0.0073	-0.0462	0.0165	0.9585
27.6571	-0.30941	3.0401	0.017255	-0.99683	-0.24508	3.3259	-19.1369	733.1821	-66.624	282.8744	81.0618	802.2572	-0.0592	0.0182	-0.0073	-0.0462	0.0165	0.9585
27.6689	-0.37311	3.0774	0.74296	-1.1775	-0.67612	3.571	-19.0025	747.2971	-64.6007	288.0355	79.1886	812.4718	-0.0592	0.0182	-0.0073	-0.0462	0.0165	0.9585
27.6807	-0.44495	3.1197	1.1287	-1.2889	-0.92401	3.7431	-18.2832	760.2088	-63.4055	293.0452	77.6467	820.9231	-0.0592	0.0182	-0.0073	-0.0462	0.0165	0.9585
27.6925	-0.55981	3.1436	1.2791	-1.3426	-1.0525	3.8496	-17.1998	771.6612	-62.7571	297.6865	76.3026	827.5493	-0.0592	0.0182	-0.0073	-0.0462	0.0165	0.9585
27.7043	-0.69105	3.0951	1.2864	-1.3374	-1.1142	3.8166	-15.8774	781.3111	-62.4155	301.7265	75.0263	832.1813	-0.0592	0.0182	-0.0073	-0.0462	0.0165	0.9585
27.7161	-0.87995	2.9211	1.2209	-1.2623	-1.1632	3.6073	-14.3602	788.7569	-62.221	304.9278	73.7243	834.5535	-0.0592	0.0182	-0.0073	-0.0462	0.0165	0.9585
27.7279	-1.0904	2.5039	1.1217	-1.0869	-1.2119	3.0826	-12.6295	793.5361	-62.0306	307.0554	72.2866	834.2863	-0.0592	0.0182	-0.0073	-0.0462	0.0165	0.9585
27.7396	-1.3474	1.7446	1.0257	-0.77958	-1.2842	2.1568	-10.6076	795.2156	-61.7723	307.9073	70.6448	830.9988	-0.0592	0.0182	-0.0073	-0.0462	0.0165	0.9585
27.7514	-1.5687	0.52508	0.92624	-0.30549	-1.338	0.66409	-8.2376	793.4862	-61.366	307.3503	68.7174	824.4036	-0.0592	0.0182	-0.0073	-0.0462	0.0165	0.9585
27.7632	-1.7174	-1.208	0.82756	0.35276	-1.349	-1.4388	-5.4546	788.2359	-60.8179	305.3352	66.4967	814.3861	-0.0592	0.0182	-0.0073	-0.0462	0.0165	0.9585
27.775	-1.6474	-3.4433	0.70553	1.1829	-1.2372	-4.1697	-2.2489	779.6153	-60.1477	301.9229	63.9978	801.0927	-0.0592	0.0182	-0.0073	-0.0462	0.0165	0.9585
27.7868	-1.249	-5.9921	0.54882	2.1149	-0.93972	-7.278	1.3674	768.056	-59.4625	297.2859	61.3317	784.9532	-0.0592	0.0182	-0.0073	-0.0462	0.0165	0.9585
27.7986	-0.29389	-8.4598	0.33131	3.0006	-0.349	-10.3181	5.3307	754.2912	-58.8623	291.7168	58.6214	766.7008	-0.0592	0.0182	-0.0073	-0.0462	0.0165	0.9585
27.8104	1.3899	-10.0953	0.027335	3.5712	0.62989	-12.3604	9.5679	739.246	-58.4796	285.5869	56.0265	747.2572	-0.0592	0.0182	-0.0073	-0.0462	0.0165	0.9585
27.8221	4.0478	-9.7684	-0.37698	3.4182	2.0941	-12.0438	13.9869	723.9453	-58.4017	279.3099	53.6721	727.6458	-0.0592	0.0182	-0.0073	-0.0462	0.0165	0.9585
27.8339	7.7796	-5.8369	-0.89698	1.9595	4.0922	-7.3443	18.516	709.3123	-58.687	273.2704	51.6472	708.767	-0.0592	0.0182	-0.0073	-0.0462	0.0165	0.9585
27.8457	12.5864	3.7694	-1.5041	-1.5391	6.58	4.2552	23.0931	696.0177	-59.3072	267.7593	49.9568	691.2748	-0.0592	0.0182	-0.0073	-0.0462	0.0165	0.9585
27.8575	18.0903	21.4478	-2.1383	-7.9196	9.3384	25.7329	27.6759	684.2313	-60.1349	262.8788	48.5006	675.3373	-0.0592	0.0182	-0.0073	-0.0462	0.0165	0.9585
27.8693	23.474	49.4953	-2.6384	-17.9867	11.87	59.9276	32.2098	673.4827	-60.9737	258.4796	47.1173	660.5293	-0.0592	0.0182	-0.0073	-0.0462	0.0165	0.9585
27.8811	27.1783	89.4824	-2.7633	-32.2747	13.3093	108.8533	36.6258	662.6525	-61.5524	254.1503	45.5802	645.8219	-0.0592	0.0182	-0.0073	-0.0462	0.0165	0.9585
27.8929	26.9208	141.2825	-2.1003	-50.7088	12.3459	172.4305	40.7924	650.0528	-61.5933	249.251	43.6756	629.67	-0.0592	0.0182	-0.0073	-0.0462	0.0165	0.9585
27.9046	20.7603	203.1	-0.12563	-72.6045	7.6996	248.6073	44.5279	633.6719	-60.8051	243.0078	41.1987	610.2347	-0.0592	0.0182	-0.0073	-0.0462	0.0165	0.9585
27.9164	9.2205	272.3139	3.532	-96.9589	-0.89361	334.1514	47.592	611.4714	-58.9739	234.625	38.0434	585.6559	-0.0592	0.0182	-0.0073	-0.0462	0.0165	0.9585
27.9282	-5.5486	344.0799	9.2074	-121.9773	-13.0643	422.8771	49.7112	581.6732	-55.9838	223.3944	34.2126	554.3371	-0.0592	0.0182	-0.0073	-0.0462	0.0165	0.9585
27.94	-21.0152	411.4851	17.1946	-145.2201	-28.1189	505.8216	50.5954	542.9737	-51.918	208.7884	29.9008	515.1187	-0.0592	0.0182	-0.0073	-0.0462	0.0165	0.9585
27.9518	-35.0831	470.8494	26.5863	-165.421	-44.2243	578.0607	49.9706	495.043	-46.9311	190.6391	25.3591	467.7633	-0.0592	0.0182	-0.0073	-0.0462	0.0165	0.9585
27.9636	-46.7666	522.4226	36.3482	-182.7267	-59.7662	639.7425	47.6388	438.7042	-41.3185	169.2203	20.937	413.0859	-0.0592	0.0182	-0.0073	-0.0462	0.0165	0.9585
27.9754	-55.7385	568.4232	45.5875	-197.9671	-73.6071	693.5849	43.562	375.9631	-35.4411	145.265	16.9738	352.9769	-0.0592	0.0182	-0.0073	-0.0462	0.0165	0.9585
27.9871	-61.9345	610.6826	53.7937	-211.8224	-85.1434	741.9319	37.8906	309.7956	-29.6134	119.8998	13.6864	290.1851	-0.0592	0.0182	-0.0073	-0.0462	0.0165	0.9585
27.9989	-65.4273	649.9031	60.7131	-224.5476	-94.1479	785.7289	30.976	243.8968	-24.0807	94.5422	11.1467	228.0964	-0.0592	0.0182	-0.0073	-0.0462	0.0165	0.9585
28.0107	-66.4188	685.8013	66.406	-236.0218	-100.7941	824.7693	23.47	182.1227	-18.9981	70.6903	9.2413	170.1924	-0.0592	0.0182	-0.0073	-0.0462	0.0165	0.9585
28.0225	-65.2919	717.574	71.0682	-245.9316	-105.4794	858.3113	16.2035	127.747	-14.4715	49.6329	7.745	119.4034	-0.0592	0.0182	-0.0073	-0.0462	0.0165	0.9585
28.0343	-62.5914	744.2212	74.9348	-253.905	-108.6764	885.3849	9.9757	82.8511	-10.5446	32.2085	6.4011	77.5472	-0.0592	0.0182	-0.0073	-0.0462	0.0165	0.9585
28.0461	-58.8897	764.7866	78.1666	-259.615	-110.7789	905.1053	5.1495	48.1782	-7.2397	18.735	5.0948	45.2586	-0.0592	0.0182	-0.0073	-0.0462	0.0165	0.9585
28.0579	-54.7132	778.6715	80.8451	-262.89	-112.0567	916.9369	1.7603	23.3715	-4.5417	9.0901	3.8073	22.1662	-0.0592	0.0182	-0.0073	-0.0462	0.0165	0.9585
28.0696	-50.4291	785.8859	82.9296	-263.7964	-112.5887	921.0006	-0.39632	7.2416	-2.494	2.8146	2.6579	7.1705	-0.0592	0.0182	-0.0073	-0.0462	0.0165	0.9585
28.0814	-46.2051	787.0517	84.2641	-262.6259	-112.2643	918.0862	-1.5716	-1.9736	-1.0811	-0.7716	1.732	-1.3847	-0.0592	0.0182	-0.0073	-0.0462	0.0165	0.9585
28.0932	-42.1233	783.1412	84.7517	-259.7817	-111.007	909.3549	-2.0591	-6.1643	-0.23407	-2.4067	1.0799	-5.2497	-0.0592	0.0182	-0.0073	-0.0462	0.0165	0.9585
28.105	-38.2367	775.1807	84.4154	-255.6687	-108.8578	896.0232	-2.0939	-7.0859	0.22039	-2.7687	0.63314	-6.0794	-0.0592	0.0182	-0.0073	-0.0462	0.0165	0.9585
28.1168	-34.5278	764.3163	83.44	-250.6997	-106.0181	879.4246	-1.8872	-6.1092	0.37263	-2.3968	0.39037	-5.143	-0.0592	0.0182	-0.0073	-0.0462	0.0165	0.9585
28.1286	-31.008	751.6632	82.0753	-245.2603	-102.7681	860.8441	-1.5607	-4.2629	0.37221	-1.686	0.26095	-3.4226	-0.0592	0.0182	-0.0073	-0.0462	0.0165	0.9585
28.1404	-27.6854	738.3464	80.5246	-239.7268	-99.3466	841.5671	-1.2341	-2.198	0.26802	-0.89276	0.23982	-1.4929	-0.0592	0.0182	-0.0073	-0.0462	0.0165	0.9585
28.1521	-24.5627	725.4859	78.9677	-234.4641	-95.9622	822.8751	-0.93511	-0.30644	0.14273	-0.16658	0.26038	0.2792	-0.0592	0.0182	-0.0073	-0.0462	0.0165	0.9585
28.1639	-21.6604	714.088	77.5097	-229.793	-92.752	805.9011	-0.70261	1.2339	0.012265	0.42051	0.3176	1.7464	-0.0592	0.0182	-0.0073	-0.0462	0.0165	0.9585
28.1757	-18.9952	704.9951	76.2702	-225.9712	-89.8592	791.5818	-0.51935	2.3804	-0.088329	0.8533	0.36835	2.8498	-0.0592	0.0182	-0.0073	-0.0462	0.0165	0.9585
28.1875	-16.5509	698.7724	75.3193	-223.1695	-87.3612	780.5264	-0.40367	3.1703	-0.16079	1.1434	0.41137	3.6302	-0.0592	0.0182	-0.0073	-0.0462	0.0165	0.9585
28.1993	-14.3016	695.7085	74.7179	-221.4716	-85.3151	773.002	-0.32013	3.6646	-0.20094	1.3185	0.42786	4.1323	-0.0592	0.0182	-0.0073	-0.0462	0.0165	0.9585
28.2111	-12.2028	695.8306	74.4408	-220.884	-83.6819	768.9715	-0.28117	3.9463	-0.22326	1.412	0.43627	4.4431	-0.0592	0.0182	-0.0073	-0.0462	0.0165	0.9585
28.2229	-10.2041	698.9049	74.4307	-221.3361	-82.3861	768.1276	-0.26086	4.0747	-0.22997	1.4529	0.438	4.5986	-0.0592	0.0182	-0.0073	-0.0462	0.0165	0.9585
28.2346	-8.2666	704.4879	74.578	-222.6942	-81.2966	769.9215	-0.2716	4.1194	-0.22885	1.4678	0.44525	4.6747	-0.0592	0.0182	-0.0073	-0.0462	0.0165	0.9585
28.2464	-6.3388	711.9512	74.784	-224.7637	-80.2888	773.6259	-0.29	4.1162	-0.22277	1.4716	0.45383	4.6941	-0.0592	0.0182	-0.0073	-0.0462	0.0165	0.9585
28.2582	-4.3525	720.5747	74.9493	-227.3152	-79.2347	778.4118	-0.32575	4.1025	-0.21401	1.4747	0.46726	4.6979	-0.0592	0.0182	-0.0073	-0.0462	0.0165	0.9585
28.27	-2.2404	729.6361	75.0101	-230.1103	-78.0446	783.458	-0.36177	4.0745	-0.21763	1.4754	0.49388	4.6731	-0.0592	0.0182	-0.0073	-0.0462	0.0165	0.9585
28.2818	0.065524	738.4617	74.9213	-232.9262	-76.6454	788.0082	-0.41524	4.0259	-0.23628	1.4693	0.54001	4.6196	-0.0592	0.0182	-0.0073	-0.0462	0.0165	0.9585
28.2936	2.6345	746.4912	74.6569	-235.5695	-74.9841	791.449	-0.48195	3.9069	-0.28598	1.4374	0.61901	4.4732	-0.0592	0.0182	-0.0073	-0.0462	0.0165	0.9585
28.3054	5.5112	753.2917	74.2113	-237.8838	-73.0293	793.3286	-0.56954	3.6617	-0.36134	1.3567	0.72859	4.1668	-0.0592	0.0182	-0.0073	-0.0462	0.0165	0.9585
28.3171	8.7636	758.6122	73.5721	-239.7693	-70.7478	793.4143	-0.65875	3.1876	-0.46653	1.1898	0.87117	3.5568	-0.0592	0.0182	-0.0073	-0.0462	0.0165	0.9585
28.3289	12.4222	762.3811	72.7665	-241.1795	-68.1557	791.6745	-0.74094	2.3783	-0.60099	0.89521	1.0407	2.5149	-0.0592	0.0182	-0.0073	-0.0462	0.0165	0.9585
28.3407	16.5124	764.6779	71.8028	-242.1155	-65.2655	788.2352	-0.78033	1.1151	-0.75888	0.42871	1.2173	0.90526	-0.0592	0.0182	-0.0073	-0.0462	0.0165	0.9585
28.3525	20.9953	765.6752	70.7574	-242.6025	-62.1699	783.3511	-0.74235	-0.68449	-0.91452	-0.24069	1.3613	-1.3629	-0.0592	0.0182	-0.0073	-0.0462	0.0165	0.9585
28.3643	25.7963	765.5536	69.683	-242.6683	-58.9555	777.2928	-0.57751	-3.0287	-1.0294	-1.1155	1.4137	-4.2958	-0.0592	0.0182	-0.0073	-0.0462	0.0165	0.9585
28.3761	30.7679	764.4474	68.7133	-242.3213	-55.8047	770.3143	-0.22882	-5.7997	-1.0497	-2.1459	1.285	-7.7523	-0.0592	0.0182	-0.0073	-0.0462	0.0165	0.9585
28.3879	35.7673	762.3603	67.9317	-241.537	-52.8555	762.5257	0.36386	-8.6405	-0.90477	-3.1935	0.86273	-11.2909	-0.0592	0.0182	-0.0073	-0.0462	0.0165	0.9585
28.3996	40.6157	759.1885	67.4518	-240.2664	-50.2786	753.9223	1.2573	-10.8664	-0.49153	-3.9957	0.0035624	-14.0655	-0.0592	0.0182	-0.0073	-0.0462	0.0165	0.9585
28.4114	45.2058	754.9102	67.2934	-238.5072	-48.1391	744.5241	2.4698	-11.3465	0.29923	-4.127	-1.4302	-14.6696	-0.0592	0.0182	-0.0073	-0.0462	0.0165	0.9585
28.4232	49.4661	749.6853	67.4805	-236.3321	-46.4818	734.5128	3.9663	-8.4504	1.5902	-2.9754	-3.5694	-11.0763	-0.0592	0.0182	-0.0073	-0.0462	0.0165	0.9585
28.435	53.4127	743.878	67.9741	-233.8947	-45.2617	724.2165	5.5864	-0.011657	3.4677	0.26423	-6.4587	-0.57627	-0.0592	0.0182	-0.0073	-0.0462	0.0165	0.9585
28.4468	57.0682	737.8129	68.7077	-231.3459	-44.4012	713.9312	7.0266	16.5287	5.9502	6.5368	-9.999	20.0353	-0.0592	0.0182	-0.0073	-0.0462	0.0165	0.9585
28.4586	60.4772	731.4694	69.5301	-228.7339	-43.7432	703.6064	7.7486	43.8182	8.9174	16.8071	-13.8268	54.0882	-0.0592	0.0182	-0.0073	-0.0462	0.0165	0.9585
28.4704	63.6366	724.227	70.1976	-225.9137	-43.0572	692.6537	6.9613	83.945	12.0132	31.8169	-17.1813	104.2075	-0.0592	0.0182	-0.0073	-0.0462	0.0165	0.9585
28.4821	66.5185	714.7268	70.3686	-222.4989	-42.0402	679.8209	3.5605	137.4409	14.545	51.7087	-18.7674	171.0888	-0.0592	0.0182	-0.0073	-0.0462	0.0165	0.9585
28.4939	68.9804	700.9817	69.6199	-217.8958	-40.3588	663.3115	-3.6669	202.022	15.4191	75.5624	-16.7967	251.9225	-0.0592	0.0182	-0.0073	-0.0462	0.0165	0.9585
28.5057	70.7863	680.64	67.513	-211.3894	-37.71	641.0139	-15.0422	271.7581	13.4996	101.1067	-9.7842	339.3287	-0.0592	0.0182	-0.0073	-0.0462	0.0165	0.9585
28.5175	71.5912	651.5198	63.7201	-202.3037	-33.9267	610.9979	-28.6873	337.7424	8.1248	125.0446	2.2516	421.9947	-0.0592	0.0182	-0.0073	-0.0462	0.0165	0.9585
